<svg width="102" height="97" viewBox="0 0 102 97" fill="none" xmlns="http://www.w3.org/2000/svg">
<path d="M44.1702 14.5368C43.9487 14.5754 43.705 14.6189 43.4392 14.6671C43.1734 14.7154 42.9341 14.7588 42.7215 14.7974C42.7569 14.4789 42.7923 14.1654 42.8278 13.8566C42.8544 13.5864 42.8765 13.3162 42.8942 13.0461C42.9208 12.7759 42.943 12.5443 42.9607 12.3513H41.8044L41.2727 14.4355C41.0778 14.4645 40.8474 14.4982 40.5816 14.5368C40.3158 14.5658 40.0677 14.5947 39.8373 14.6237C39.5538 14.6623 39.2747 14.7009 39 14.7395C39.3544 13.4561 39.7044 12.1921 40.05 10.9474C40.1918 10.4263 40.338 9.88114 40.4886 9.31184C40.6481 8.74254 40.8031 8.17807 40.9538 7.61842C41.1133 7.04912 41.2639 6.50395 41.4057 5.9829C41.5474 5.46184 41.6715 4.98421 41.7778 4.55C42.3803 4.50175 42.9917 4.44386 43.612 4.37632C44.2411 4.30877 44.8524 4.21711 45.4461 4.10132C45.4195 4.41009 45.3885 4.79605 45.3531 5.25921C45.3265 5.71272 45.2999 6.20965 45.2733 6.75C45.2467 7.29035 45.2202 7.85482 45.1936 8.44342C45.167 9.03202 45.1404 9.61097 45.1138 10.1803C45.0695 11.5118 45.0208 12.9254 44.9676 14.4211C44.7018 14.4693 44.436 14.5079 44.1702 14.5368ZM42.1234 10.9039C42.1588 10.9039 42.2208 10.9039 42.3094 10.9039C42.4069 10.8943 42.5044 10.8895 42.6018 10.8895C42.7082 10.8798 42.8056 10.875 42.8942 10.875C42.9828 10.8654 43.0449 10.8557 43.0803 10.8461C43.0803 10.7882 43.0847 10.6917 43.0936 10.5566C43.1113 10.4118 43.1246 10.2526 43.1335 10.0789C43.1512 9.89561 43.1689 9.69781 43.1866 9.48553C43.2044 9.27325 43.2221 9.06579 43.2398 8.86316C43.2752 8.37105 43.3196 7.84035 43.3727 7.27105L43.4525 6.01184L43.2531 6.02632L42.9474 7.27105L42.1234 10.9039Z" fill="#FFEDDE"/>
<path d="M44.9891 14.8408C45.2549 13.5382 45.5075 12.2645 45.7467 11.0197C45.8442 10.4987 45.9461 9.94868 46.0524 9.36974C46.1587 8.79079 46.2606 8.22149 46.3581 7.66184C46.4556 7.10219 46.5486 6.56184 46.6372 6.04079C46.7258 5.51974 46.8011 5.04211 46.8631 4.60789C47.1201 4.52105 47.3726 4.44868 47.6207 4.39079C47.8688 4.32325 48.1214 4.26535 48.3783 4.21711C48.6441 4.16886 48.8922 4.14474 49.1226 4.14474C49.5213 4.14474 49.8536 4.21711 50.1194 4.36184C50.3941 4.50658 50.6156 4.70439 50.784 4.95526C50.9523 5.19649 51.0719 5.48114 51.1428 5.80921C51.2137 6.13728 51.2491 6.48947 51.2491 6.86579C51.2491 7.40614 51.1561 7.92719 50.97 8.42895C50.7928 8.9307 50.5492 9.37939 50.239 9.775C49.9378 10.161 49.5878 10.4697 49.1891 10.7013C48.7992 10.9329 48.3916 11.0487 47.9663 11.0487H47.8201C47.7492 11.3768 47.6827 11.7338 47.6207 12.1197C47.5587 12.5057 47.5055 12.8627 47.4612 13.1908C47.3992 13.5768 47.3416 13.9627 47.2885 14.3487L44.9891 14.8408ZM48.6973 5.89605C48.5998 6.5329 48.5024 7.13597 48.4049 7.70526C48.3074 8.27456 48.2011 8.88246 48.0859 9.52895C48.2277 9.49035 48.3739 9.40351 48.5245 9.26842C48.684 9.12368 48.8302 8.94035 48.9631 8.71842C49.096 8.48684 49.2023 8.22149 49.2821 7.92237C49.3618 7.62325 49.4017 7.30965 49.4017 6.98158C49.4017 6.62456 49.3264 6.35439 49.1758 6.17105C49.034 5.98772 48.8745 5.89605 48.6973 5.89605Z" fill="#FFEDDE"/>
<path d="M51.1833 14.8408C51.3871 13.7794 51.582 12.7325 51.7681 11.7C51.8479 11.2658 51.9276 10.8123 52.0074 10.3395C52.0871 9.86667 52.1624 9.40351 52.2333 8.95C52.313 8.48684 52.3795 8.04298 52.4327 7.61842C52.4947 7.18421 52.5479 6.7886 52.5922 6.43158C52.3884 6.40263 52.1801 6.39298 51.9675 6.40263C51.7637 6.41228 51.5599 6.38333 51.3561 6.31579C51.365 6.1614 51.3694 5.98289 51.3694 5.78026C51.3694 5.57763 51.3738 5.375 51.3827 5.17237C51.3915 4.95044 51.4004 4.71403 51.4093 4.46316C51.6396 4.48246 51.87 4.49693 52.1004 4.50658C52.3308 4.51623 52.5611 4.52105 52.7915 4.52105C53.2434 4.52105 53.6776 4.5114 54.094 4.4921C54.5193 4.46316 54.9092 4.43421 55.2636 4.40526C55.6269 4.36667 55.9813 4.32325 56.3269 4.275L56.1807 5.05658C56.1364 5.27851 56.0921 5.50526 56.0478 5.73684C56.0124 5.96842 55.9769 6.16623 55.9415 6.33026C55.7465 6.38816 55.5472 6.43158 55.3434 6.46053C55.1484 6.47982 54.9535 6.50877 54.7586 6.54737C54.6966 6.87544 54.6301 7.24211 54.5592 7.64737C54.4883 8.04298 54.4174 8.45789 54.3466 8.89211C54.2845 9.31667 54.2225 9.75088 54.1605 10.1947C54.0985 10.6386 54.0364 11.0632 53.9744 11.4684C53.8326 12.4237 53.6997 13.4127 53.5757 14.4355L51.1833 14.8408Z" fill="#FFEDDE"/>
<path d="M61.895 6.99605C61.895 7.78728 61.8152 8.53509 61.6557 9.23947C61.5051 9.93421 61.3013 10.5759 61.0444 11.1645C60.7874 11.7434 60.4861 12.2645 60.1406 12.7276C59.8039 13.1811 59.4494 13.5719 59.0773 13.9C58.7052 14.2184 58.3286 14.4645 57.9476 14.6382C57.5666 14.8022 57.2033 14.8842 56.8577 14.8842C56.5653 14.8842 56.2995 14.8263 56.0603 14.7105C55.821 14.5851 55.6128 14.4066 55.4356 14.175C55.2584 13.9338 55.1166 13.6298 55.0103 13.2632C54.9128 12.8868 54.8641 12.4382 54.8641 11.9171C54.8641 11.3768 54.9261 10.8075 55.0501 10.2092C55.1742 9.61097 55.3425 9.01754 55.5552 8.42895C55.7679 7.84035 56.0292 7.2807 56.3394 6.75C56.6495 6.2193 56.9906 5.75132 57.3628 5.34605C57.7349 4.93114 58.1336 4.60307 58.559 4.36184C58.9843 4.12061 59.4273 4 59.888 4C60.2868 4 60.6146 4.09167 60.8716 4.275C61.1374 4.44868 61.3412 4.68026 61.483 4.96974C61.6336 5.24956 61.7399 5.56798 61.8019 5.925C61.864 6.28202 61.895 6.63904 61.895 6.99605ZM56.8444 11.5408C56.8444 11.6469 56.8621 11.7579 56.8976 11.8737C56.933 11.9895 56.9818 12.0908 57.0438 12.1776C57.1058 12.2645 57.1811 12.3417 57.2697 12.4092C57.3672 12.4671 57.4691 12.4961 57.5754 12.4961C57.9742 12.4961 58.3286 12.3465 58.6387 12.0474C58.9488 11.7482 59.2058 11.3816 59.4096 10.9474C59.6134 10.5132 59.7684 10.05 59.8748 9.5579C59.9899 9.06579 60.0475 8.61711 60.0475 8.21184C60.0475 8.09605 60.0387 7.97061 60.021 7.83553C60.0121 7.70044 59.9855 7.575 59.9412 7.45921C59.9058 7.34342 59.8437 7.24693 59.7551 7.16974C59.6754 7.08289 59.5646 7.03947 59.4229 7.03947C59.1393 7.03947 58.8779 7.11667 58.6387 7.27105C58.3995 7.42544 58.1824 7.63289 57.9874 7.89342C57.8014 8.1443 57.6374 8.43377 57.4957 8.76184C57.3539 9.08026 57.2299 9.40833 57.1235 9.74605C57.0261 10.0741 56.9552 10.3974 56.9109 10.7158C56.8666 11.0342 56.8444 11.3092 56.8444 11.5408Z" fill="#FFEDDE"/>
<path d="M67.3863 11.1211C67.3863 11.5649 67.2756 12.0184 67.054 12.4816C66.8325 12.9447 66.5313 13.3645 66.1503 13.7408C65.7781 14.1075 65.3439 14.4114 64.8477 14.6526C64.3604 14.8842 63.8554 15 63.3326 15C63.0313 15 62.7478 14.9614 62.482 14.8842C62.2161 14.807 61.9813 14.6912 61.7775 14.5368C61.5826 14.3728 61.4275 14.1702 61.3124 13.9289C61.1972 13.6781 61.1396 13.3838 61.1396 13.0461C61.1396 12.8241 61.1794 12.5781 61.2592 12.3079L63.5851 12.1632C63.5851 12.3561 63.6294 12.4961 63.718 12.5829C63.8066 12.6697 63.9174 12.7132 64.0503 12.7132C64.1655 12.7132 64.2895 12.6842 64.4224 12.6263C64.5553 12.5588 64.6794 12.4719 64.7946 12.3658C64.9186 12.2596 65.0161 12.139 65.087 12.0039C65.1667 11.8689 65.2066 11.7193 65.2066 11.5553C65.2066 11.3237 65.1047 11.1114 64.9009 10.9184C64.6971 10.7254 64.3604 10.6289 63.8908 10.6289C63.5452 10.6289 63.2041 10.6579 62.8674 10.7158C62.5307 10.764 62.2472 10.7978 62.0168 10.8171L62.256 8.675C62.5218 8.49167 62.7965 8.29868 63.08 8.09605C63.3636 7.88377 63.6205 7.68114 63.8509 7.48816C64.1256 7.27588 64.387 7.05877 64.6351 6.83684L62.4952 6.88026L62.6547 4.39079C63.4611 4.35219 64.2098 4.3136 64.9009 4.275C65.1933 4.275 65.4901 4.27018 65.7914 4.26053C66.1015 4.24123 66.3895 4.22675 66.6553 4.21711C66.9211 4.19781 67.1604 4.18816 67.373 4.18816C67.5945 4.17851 67.7673 4.17368 67.8914 4.17368L67.5724 7.25658L64.9142 8.77632C65.3572 8.86316 65.7338 8.98377 66.0439 9.13816C66.3629 9.29254 66.6199 9.47588 66.8148 9.68816C67.0186 9.89079 67.1648 10.1175 67.2534 10.3684C67.342 10.6096 67.3863 10.8605 67.3863 11.1211Z" fill="#FFEDDE"/>
<path d="M70.2121 14.8553L70.4779 12.5395L68.1919 12.7276L67.6071 11.425C67.8995 10.4697 68.1786 9.5579 68.4444 8.68947C68.5596 8.32281 68.6748 7.94649 68.79 7.56053C68.9051 7.16491 69.0159 6.78377 69.1222 6.41711C69.2374 6.05044 69.3437 5.70307 69.4412 5.375C69.5387 5.04693 69.6273 4.76228 69.707 4.52105C70.0792 4.52105 70.4292 4.5114 70.757 4.4921C71.0937 4.46316 71.4526 4.41974 71.8336 4.36184C71.5057 5.25921 71.2 6.1614 70.9165 7.06842C70.6418 7.97544 70.3716 8.89693 70.1058 9.83289C70.0969 9.90044 70.088 9.95833 70.0792 10.0066C70.0703 10.0548 70.057 10.1127 70.0393 10.1803H70.983C70.9918 10.1127 71.0095 10.0066 71.0361 9.86184C71.0627 9.70746 71.0937 9.52895 71.1292 9.32632C71.1646 9.12368 71.2 8.90175 71.2355 8.66053C71.2798 8.4193 71.3241 8.17325 71.3684 7.92237C71.457 7.36272 71.5633 6.75 71.6874 6.08421C71.9709 6.03597 72.2589 5.99254 72.5513 5.95395C72.7905 5.91535 73.0386 5.88158 73.2956 5.85263C73.5525 5.82368 73.7741 5.79956 73.9601 5.78026C73.9513 5.87675 73.9247 6.04079 73.8804 6.27237C73.8449 6.50395 73.8006 6.76447 73.7475 7.05395C73.7032 7.34342 73.6544 7.65219 73.6013 7.98026C73.557 8.30833 73.5082 8.61711 73.4551 8.90658C73.4019 9.19605 73.3576 9.45658 73.3222 9.68816C73.2867 9.91974 73.2601 10.0838 73.2424 10.1803H74L73.4551 12.4961H72.7772L72.6576 14.3921L70.2121 14.8553Z" fill="#FFEDDE"/>
<path d="M14.5638 32.4582H15.0638V32.3627L15.0285 32.2739L14.5638 32.4582ZM13.7674 30.4503L14.2321 30.2659L14.226 30.2504L14.2188 30.2354L13.7674 30.4503ZM12.971 28.777H12.471V28.8899L12.5195 28.9918L12.971 28.777ZM12.971 21.4144H13.471V21.3416L13.4502 21.2718L12.971 21.4144ZM12.1746 18.7371H11.6746V18.8099L11.6953 18.8797L12.1746 18.7371ZM12.1746 12.5458L11.7611 12.2647L11.6746 12.392V12.5458H12.1746ZM12.971 11.3745L13.3844 11.6557L13.471 11.5284V11.3745H12.971ZM13.7674 3.84463L13.3687 3.5428L13.3324 3.59081L13.3085 3.64608L13.7674 3.84463ZM15.1611 2.00399L14.9527 1.54947L14.8384 1.60188L14.7624 1.70216L15.1611 2.00399ZM17.3512 1V0.5H17.242L17.1428 0.545482L17.3512 1ZM19.5413 1L19.735 0.539045L19.6421 0.5H19.5413V1ZM21.9305 2.00399L22.2041 1.58547L22.1661 1.56062L22.1242 1.54303L21.9305 2.00399ZM23.7224 3.1753L24.059 2.80559L24.0294 2.77867L23.996 2.75679L23.7224 3.1753ZM26.1116 5.35061L26.4648 4.9967L26.4567 4.98861L26.4482 4.98089L26.1116 5.35061ZM29.2972 8.5299L29.6753 8.20272L29.6634 8.1889L29.6504 8.17599L29.2972 8.5299ZM32.4828 12.2112L32.8963 11.93L32.88 11.906L32.8609 11.884L32.4828 12.2112ZM34.872 15.7251L34.4586 16.0063L34.4749 16.0303L34.494 16.0523L34.872 15.7251ZM36.4649 17.5658L36.0868 17.893L36.2363 18.0658H36.4649V17.5658ZM38.4559 17.5658L38.6496 17.1048L38.5566 17.0658H38.4559V17.5658ZM42.8361 19.4064L42.6424 19.8674L42.8092 19.9375L42.9822 19.8846L42.8361 19.4064ZM45.0262 18.7371V18.2371H44.9515L44.8801 18.2589L45.0262 18.7371ZM49.2073 18.7371V19.2371H49.3081L49.401 19.1981L49.2073 18.7371ZM50.4019 18.2351V17.7351H50.3011L50.2082 17.7741L50.4019 18.2351ZM53.9857 18.2351L54.0809 17.7442L54.0338 17.7351H53.9857V18.2351ZM56.574 18.7371L56.7089 18.2556L56.6893 18.2501L56.6692 18.2462L56.574 18.7371ZM58.9632 19.4064L58.8284 19.8879L58.8945 19.9064H58.9632V19.4064ZM61.5515 19.4064L61.8732 19.0236L61.7337 18.9064H61.5515V19.4064ZM62.1488 19.9084L61.8272 20.2912L61.9315 20.3789L62.066 20.4015L62.1488 19.9084ZM64.1399 20.2431L64.2901 19.7662L64.257 19.7558L64.2227 19.75L64.1399 20.2431ZM65.7327 20.7451L65.5824 21.2219L65.6557 21.2451H65.7327V20.7451ZM68.9183 20.7451V21.2451H68.9748L69.03 21.2324L68.9183 20.7451ZM71.1084 20.2431L71.2201 20.7304L71.2718 20.7186L71.3199 20.6961L71.1084 20.2431ZM72.9003 19.4064V18.9064H72.7893L72.6888 18.9534L72.9003 19.4064ZM73.8958 19.4064V19.9064H74.0447L74.1694 19.8249L73.8958 19.4064ZM75.6877 18.2351L75.9613 18.6536L75.9917 18.6337L76.019 18.6096L75.6877 18.2351ZM79.4706 14.8885L79.1744 14.4857L79.1562 14.499L79.1393 14.514L79.4706 14.8885ZM84.249 11.3745L83.9678 10.9611L83.9602 10.9663L83.9528 10.9717L84.249 11.3745ZM88.4302 8.5299L88.7115 8.94344L88.7224 8.93559L88.4302 8.5299ZM89.8239 7.52591L89.6777 7.04774L89.5987 7.0719L89.5316 7.12022L89.8239 7.52591ZM92.014 6.85659L91.8791 6.37499L91.8678 6.37842L92.014 6.85659ZM93.8059 6.35459V5.85459H93.7372L93.671 5.87313L93.8059 6.35459ZM94.6023 6.35459L94.6852 5.86151L94.644 5.85459H94.6023V6.35459ZM95.5978 6.52193L95.8229 6.07548L95.7553 6.04139L95.6807 6.02884L95.5978 6.52193ZM96.5933 7.02392L96.915 6.64115L96.8704 6.60369L96.8184 6.57747L96.5933 7.02392ZM97.1906 7.52591L96.8689 7.90868L96.8951 7.93067L96.924 7.9489L97.1906 7.52591ZM97.987 8.02791L98.3087 7.64514L98.2825 7.62315L98.2536 7.60492L97.987 8.02791ZM98.9825 8.86456L99.4473 8.68022L99.4008 8.56295L99.3042 8.48179L98.9825 8.86456ZM99.3807 10.3705L99.8711 10.4678L99.8952 10.3465L99.8599 10.228L99.3807 10.3705ZM99.1816 11.3745L99.6608 11.5171L99.6675 11.4947L99.672 11.4718L99.1816 11.3745ZM98.7834 15.2231L99.2482 15.4075L99.2834 15.3187V15.2231H98.7834ZM98.5843 18.9044L99.0491 19.0888L99.1007 18.9586L99.0772 18.8206L98.5843 18.9044ZM98.1861 19.9084L97.7213 19.7241L97.6985 19.7816L97.6904 19.8429L98.1861 19.9084ZM97.987 21.4144L98.4518 21.5987L98.4746 21.5412L98.4827 21.4799L97.987 21.4144ZM97.5888 22.4184L97.9957 22.7089L98.0311 22.6593L98.0536 22.6027L97.5888 22.4184ZM96.9915 23.255L96.5845 22.9645L96.5554 23.0054L96.5349 23.0513L96.9915 23.255ZM96.3942 24.5937L96.8011 24.8842L96.8303 24.8433L96.8508 24.7974L96.3942 24.5937ZM95.7969 25.4303L95.3899 25.1398L95.3274 25.2275L95.3064 25.3331L95.7969 25.4303ZM95.3987 27.4383L94.9082 27.341L94.887 27.448L94.9123 27.5541L95.3987 27.4383ZM95.5978 28.275L96.0943 28.334L96.1048 28.2457L96.0842 28.1592L95.5978 28.275ZM95.3987 29.9483L95.8874 30.054L95.8924 30.0309L95.8952 30.0074L95.3987 29.9483ZM95.0005 31.7889L94.5118 31.6832L94.5083 31.6992L94.5059 31.7154L95.0005 31.7889ZM94.8014 33.1276L95.2311 33.3832L95.2814 33.2986L95.2959 33.2011L94.8014 33.1276ZM94.4032 33.7969L94.8101 34.0874L94.8222 34.0704L94.8329 34.0525L94.4032 33.7969ZM93.325 35.4179L92.912 35.136L92.8647 35.2052L92.8426 35.2862L93.325 35.4179ZM92.9248 36.8828L92.4425 36.751L92.4248 36.8157V36.8828H92.9248ZM92.9248 38.5104L93.4218 38.5659L93.4248 38.5383V38.5104H92.9248ZM92.9248 39.9753L93.3508 40.2371L93.3508 40.2371L92.9248 39.9753ZM92.9248 41.1146L93.4 41.2703L93.4141 41.2272L93.4202 41.1823L92.9248 41.1146ZM92.7248 41.7656L93.1989 41.9246V41.9246L92.7248 41.7656ZM92.1246 43.7188L91.6485 43.5661L91.6381 43.5987L91.6321 43.6323L92.1246 43.7188ZM91.9246 44.8581L92.3963 45.0238L92.4099 44.9851L92.417 44.9446L91.9246 44.8581ZM91.5244 45.9975L91.0527 45.8318L91.0244 45.9122V45.9975H91.5244ZM91.5244 46.974L91.9921 47.1509L92.0244 47.0654V46.974H91.5244ZM90.7242 49.0899L91.1334 49.3773L91.1696 49.3258L91.1919 49.2668L90.7242 49.0899ZM89.924 50.2293L89.5148 49.9419L89.4475 50.0377L89.4298 50.1533L89.924 50.2293ZM89.5239 52.8335L90.0062 52.9652L90.0137 52.9376L90.0181 52.9094L89.5239 52.8335ZM89.1237 54.2983L89.6017 54.4452L89.604 54.4377L89.6061 54.4301L89.1237 54.2983ZM88.5236 56.2515L88.0456 56.1046L88.0374 56.1312L88.0323 56.1586L88.5236 56.2515ZM88.1235 58.3674L88.5775 58.5767L88.6033 58.5208L88.6147 58.4603L88.1235 58.3674ZM87.5233 59.6695L87.0692 59.4602L87.0233 59.5598V59.6695H87.5233ZM87.5233 60.9716L87.9257 61.2683L88.0233 61.136V60.9716H87.5233ZM86.3229 62.5992L85.9205 62.3024L85.8229 62.4348V62.5992H86.3229ZM86.3229 63.9013L86.7253 64.1981L86.8229 64.0657V63.9013H86.3229ZM85.1226 65.5289L84.7202 65.2321L84.7015 65.2575L84.6861 65.285L85.1226 65.5289ZM84.1223 67.3193L84.5247 67.6161L84.5434 67.5907L84.5588 67.5632L84.1223 67.3193ZM82.3218 69.7607L82.6475 70.1401L82.6905 70.1031L82.7242 70.0575L82.3218 69.7607ZM78.7207 72.8532L78.9591 73.2927L79.006 73.2673L79.0465 73.2325L78.7207 72.8532ZM76.32 74.1553L76.4316 74.6427L76.4983 74.6274L76.5584 74.5948L76.32 74.1553ZM69.9182 75.6202L69.8067 75.1328L69.7426 75.1474L69.6845 75.1782L69.9182 75.6202ZM65.917 77.7361L65.9652 78.2337L66.0635 78.2242L66.1508 78.1781L65.917 77.7361ZM57.5146 78.5499L57.4664 78.0522L57.4447 78.0543L57.4232 78.0583L57.5146 78.5499ZM50.5126 79.852L50.3954 80.3381L50.4991 80.3631L50.604 80.3436L50.5126 79.852ZM45.111 78.5499L44.9834 79.0335L44.9939 79.036L45.111 78.5499ZM37.7089 76.5967L37.4896 77.0461L37.5338 77.0676L37.5813 77.0802L37.7089 76.5967ZM32.7075 74.1553L32.3734 74.5274L32.4254 74.574L32.4881 74.6046L32.7075 74.1553ZM26.9058 68.9469L27.2398 68.5749L27.2308 68.5667L27.2213 68.5591L26.9058 68.9469ZM23.5048 66.18L23.8203 65.7921L23.7842 65.7627L23.7432 65.7404L23.5048 66.18ZM21.7043 65.2034L21.2291 65.3591L21.2911 65.5481L21.4659 65.6429L21.7043 65.2034ZM20.904 62.762L21.3792 62.6062L21.3641 62.5603L21.3405 62.5181L20.904 62.762ZM19.9038 60.9716L20.3403 60.7277L20.3065 60.6673L20.2575 60.6183L19.9038 60.9716ZM17.303 58.3674L16.815 58.4764L16.8467 58.618L16.9492 58.7207L17.303 58.3674ZM16.9029 56.577H16.4029V56.6322L16.4149 56.6861L16.9029 56.577ZM16.9029 52.0197H17.4029V51.8783L17.3289 51.7579L16.9029 52.0197ZM16.5028 51.3686L16.0401 51.179L15.9438 51.414L16.0768 51.6304L16.5028 51.3686ZM16.7028 50.8803L17.1655 51.0699L17.2164 50.9457L17.1982 50.8127L16.7028 50.8803ZM16.5028 49.4155L16.9982 49.3478L16.997 49.3395L16.5028 49.4155ZM16.3027 48.1134L15.9003 47.8166L15.777 47.9839L15.8085 48.1893L16.3027 48.1134ZM16.9029 47.2996L17.3053 47.5963L17.4304 47.4267L17.3963 47.2187L16.9029 47.2996ZM16.5028 44.8581L16.9962 44.7773L16.9907 44.7437L16.9807 44.7113L16.5028 44.8581ZM16.9029 43.2305L17.3808 43.3774L17.4334 43.2064L17.3656 43.0409L16.9029 43.2305ZM16.1027 41.2774L16.5655 41.0877L16.5605 41.0764L16.1027 41.2774ZM15.1024 38.9987L14.6168 38.8793L14.5763 39.0442L14.6445 39.1997L15.1024 38.9987ZM15.5025 37.3711L15.988 37.4904L16.0315 37.3137L15.9512 37.1505L15.5025 37.3711ZM14.7023 35.7434H14.2023V35.8597L14.2536 35.9641L14.7023 35.7434ZM65.9344 60.9756L65.7476 60.5118L64.82 60.8854L65.0068 61.3492L65.9344 60.9756ZM68.9085 60.6877L68.7764 60.2054H68.7764L68.9085 60.6877ZM84.8693 57.8758L84.9237 58.3729L84.8693 57.8758ZM99.732 56.8047L99.7684 57.3033L99.732 56.8047ZM101.264 56.986L101.688 56.7223L101.161 55.8727L100.736 56.1364L101.264 56.986ZM45.6381 61.341L46.0359 61.644L46.6419 60.8486L46.2442 60.5456L45.6381 61.341ZM20.5555 51.5218L20.4252 52.0045L20.5555 51.5218ZM6.52513 47.091L6.03815 46.9776L5.81141 47.9515L6.29839 48.0649L6.52513 47.091ZM44.697 64.7253L45.1924 64.793L45.3278 63.8022L44.8324 63.7345L44.697 64.7253ZM3.56209 63.5726L3.49376 63.0773L3.56209 63.5726ZM1 63.2917H0.5V64.2917H1V63.2917ZM44.8869 69.3159L45.3717 69.1937L45.1274 68.224L44.6425 68.3462L44.8869 69.3159ZM20.9477 73.1888L21.03 73.682L20.9477 73.1888ZM11.0392 75.3068L11.2072 75.7778L11.0392 75.3068ZM7.57517 76.1589L7.7053 76.6416L7.57517 76.1589ZM2.37605 76.6583L1.87733 76.694L1.94878 77.6915L2.4475 77.6557L2.37605 76.6583ZM65.3894 65.0688L64.9137 64.9148L64.6056 65.8661L65.0812 66.0202L65.3894 65.0688ZM88.4641 75.4772L88.3063 75.9517L88.4641 75.4772ZM93.2993 78.5436L93.5904 78.9502L94.4035 78.368L94.1124 77.9615L93.2993 78.5436ZM63.09 69.4755L62.8579 69.0326L61.9721 69.4966L62.2041 69.9395L63.09 69.4755ZM70.9608 80.4679L71.3358 80.1373L70.9608 80.4679ZM74.5948 85.2639L74.2034 85.5751L74.5948 85.2639ZM75.9281 86.895L75.4967 87.1477L75.9281 86.895ZM83.1961 94.2472L82.9498 94.6823L83.1961 94.2472ZM84.9716 96.4248L85.3964 96.6885L85.9238 95.8389L85.499 95.5752L84.9716 96.4248ZM15.0285 32.2739L14.2321 30.2659L13.3026 30.6346L14.099 32.6426L15.0285 32.2739ZM14.2188 30.2354L13.4224 28.5621L12.5195 28.9918L13.3159 30.6651L14.2188 30.2354ZM13.4502 21.2718L12.6538 18.5945L11.6953 18.8797L12.4917 21.557L13.4502 21.2718ZM12.588 12.827L13.3844 11.6557L12.5575 11.0934L11.7611 12.2647L12.588 12.827ZM13.471 6.01993C13.471 6.04947 13.4667 6.04862 13.4803 5.99224C13.4914 5.94623 13.5093 5.8839 13.5343 5.80573C13.5841 5.64995 13.6551 5.45374 13.7366 5.24063C13.8992 4.81556 14.0954 4.34558 14.2263 4.04318L13.3085 3.64608C13.1739 3.95722 12.9718 4.44103 12.8026 4.8833C12.7182 5.10385 12.6399 5.31969 12.5818 5.50102C12.5529 5.59139 12.5272 5.67888 12.5083 5.75728C12.4918 5.82531 12.471 5.92347 12.471 6.01993H13.471ZM14.166 4.14646L15.5597 2.30582L14.7624 1.70216L13.3687 3.5428L14.166 4.14646ZM15.3694 2.4585L17.5595 1.45452L17.1428 0.545482L14.9527 1.54947L15.3694 2.4585ZM17.3512 1.5H19.5413V0.5H17.3512V1.5ZM19.3476 1.46096L21.7368 2.46494L22.1242 1.54303L19.735 0.539045L19.3476 1.46096ZM21.6569 2.4225L23.4488 3.59382L23.996 2.75679L22.2041 1.58547L21.6569 2.4225ZM23.3858 3.54502L25.775 5.72032L26.4482 4.98089L24.059 2.80559L23.3858 3.54502ZM25.7584 5.70451L28.944 8.8838L29.6504 8.17599L26.4648 4.9967L25.7584 5.70451ZM28.9191 8.85708L32.1047 12.5384L32.8609 11.884L29.6753 8.20272L28.9191 8.85708ZM32.0694 12.4923L34.4586 16.0063L35.2855 15.444L32.8963 11.93L32.0694 12.4923ZM34.494 16.0523L36.0868 17.893L36.8429 17.2386L35.2501 15.398L34.494 16.0523ZM36.4649 18.0658H38.4559V17.0658H36.4649V18.0658ZM42.9822 19.8846L45.1723 19.2153L44.8801 18.2589L42.6899 18.9283L42.9822 19.8846ZM49.401 19.1981L50.5956 18.6961L50.2082 17.7741L49.0136 18.2761L49.401 19.1981ZM53.8905 18.726L56.4788 19.2279L56.6692 18.2462L54.0809 17.7442L53.8905 18.726ZM56.4391 19.2186L58.8284 19.8879L59.0981 18.925L56.7089 18.2556L56.4391 19.2186ZM58.9632 19.9064H61.5515V18.9064H58.9632V19.9064ZM61.2299 19.7892L61.8272 20.2912L62.4705 19.5256L61.8732 19.0236L61.2299 19.7892ZM62.066 20.4015L64.057 20.7362L64.2227 19.75L62.2317 19.4153L62.066 20.4015ZM63.9896 20.72L65.5824 21.2219L65.883 20.2682L64.2901 19.7662L63.9896 20.72ZM65.7327 21.2451H68.9183V20.2451H65.7327V21.2451ZM69.03 21.2324L71.2201 20.7304L70.9967 19.7557L68.8066 20.2577L69.03 21.2324ZM71.3199 20.6961L73.1118 19.8595L72.6888 18.9534L70.8969 19.79L71.3199 20.6961ZM72.9003 19.9064H73.8958V18.9064H72.9003V19.9064ZM74.1694 19.8249L75.9613 18.6536L75.4141 17.8166L73.6222 18.9879L74.1694 19.8249ZM76.019 18.6096L79.8019 15.263L79.1393 14.514L75.3564 17.8606L76.019 18.6096ZM79.7668 15.2913L84.5453 11.7773L83.9528 10.9717L79.1744 14.4857L79.7668 15.2913ZM84.5303 11.7879L88.7114 8.94329L88.1489 8.1165L83.9678 10.9611L84.5303 11.7879ZM88.7224 8.93559L90.1161 7.93161L89.5316 7.12022L88.1379 8.1242L88.7224 8.93559ZM89.97 8.00408L92.1601 7.33476L91.8678 6.37842L89.6777 7.04774L89.97 8.00408ZM92.1488 7.33805L93.9408 6.83606L93.671 5.87313L91.8791 6.37512L92.1488 7.33805ZM93.8059 6.85459H94.6023V5.85459H93.8059V6.85459ZM94.5194 6.84768L95.5149 7.01501L95.6807 6.02884L94.6852 5.86151L94.5194 6.84768ZM95.3727 6.96838L96.3682 7.47037L96.8184 6.57747L95.8229 6.07548L95.3727 6.96838ZM96.2716 7.40669L96.8689 7.90868L97.5123 7.14314L96.915 6.64115L96.2716 7.40669ZM96.924 7.9489L97.7204 8.45089L98.2536 7.60492L97.4572 7.10293L96.924 7.9489ZM97.6653 8.41068L98.6608 9.24733L99.3042 8.48179L98.3087 7.64514L97.6653 8.41068ZM98.5177 9.0489C98.5477 9.12456 98.5934 9.24753 98.6307 9.3641C98.6494 9.42257 98.6642 9.47373 98.6737 9.51348C98.6858 9.56367 98.6816 9.56324 98.6816 9.53389H99.6816C99.6816 9.43759 99.6608 9.34095 99.6459 9.27924C99.6285 9.20708 99.6059 9.13066 99.5832 9.05945C99.5375 8.91665 99.4836 8.77189 99.4473 8.68022L98.5177 9.0489ZM98.6816 9.53389C98.6816 9.6228 98.7 9.72245 98.7131 9.78794C98.7289 9.86648 98.7497 9.95474 98.7714 10.041C98.815 10.214 98.8668 10.3967 98.9014 10.5131L99.8599 10.228C99.8282 10.1213 99.7804 9.95257 99.7411 9.79653C99.7214 9.71821 99.7048 9.6475 99.6936 9.59148C99.6798 9.52241 99.6816 9.5119 99.6816 9.53389H98.6816ZM98.8902 10.2733L98.6911 11.2773L99.672 11.4718L99.8711 10.4678L98.8902 10.2733ZM98.7023 11.232C98.6353 11.4574 98.5346 11.8043 98.4504 12.113C98.4083 12.267 98.3694 12.415 98.3407 12.535C98.3264 12.5947 98.3136 12.6517 98.3041 12.701C98.2972 12.7369 98.2834 12.8098 98.2834 12.8805H99.2834C99.2834 12.9177 99.2779 12.9324 99.286 12.8903C99.2915 12.8617 99.3005 12.8208 99.3132 12.7679C99.3384 12.6628 99.3741 12.5263 99.4151 12.3763C99.4967 12.0771 99.5952 11.7379 99.6608 11.5171L98.7023 11.232ZM98.3186 15.0388C98.2823 15.1305 98.2284 15.2752 98.1827 15.418C98.1599 15.4892 98.1374 15.5657 98.12 15.6378C98.1051 15.6995 98.0843 15.7962 98.0843 15.8925H99.0843C99.0843 15.9218 99.0801 15.9223 99.0922 15.8721C99.1017 15.8323 99.1165 15.7811 99.1352 15.7227C99.1725 15.6061 99.2182 15.4831 99.2482 15.4075L98.3186 15.0388ZM98.0843 15.8925C98.0843 15.8192 98.1109 15.7575 98.1338 15.7222C98.1409 15.7113 98.1452 15.7068 98.1366 15.7172C98.1337 15.7206 98.1097 15.7489 98.093 15.77C98.0492 15.8253 97.9915 15.9075 97.9482 16.0225C97.9055 16.1364 97.8852 16.2599 97.8852 16.3945H98.8852C98.8852 16.3617 98.8898 16.3597 98.8844 16.3742C98.8785 16.3899 98.8706 16.3989 98.8765 16.3914C98.8847 16.3811 98.8855 16.3806 98.906 16.356C98.9207 16.3382 98.9468 16.3063 98.9726 16.2666C99.0328 16.1738 99.0843 16.0494 99.0843 15.8925H98.0843ZM97.8852 16.3945V17.5658H98.8852V16.3945H97.8852ZM97.8852 17.5658C97.8852 17.6395 97.8993 17.7521 97.9113 17.8425C97.9255 17.9487 97.9447 18.0791 97.9657 18.215C98.0077 18.4875 98.0579 18.7913 98.0914 18.9882L99.0772 18.8206C99.0443 18.6271 98.995 18.3286 98.954 18.0627C98.9335 17.9296 98.9154 17.8069 98.9026 17.7105C98.8877 17.5984 98.8852 17.559 98.8852 17.5658H97.8852ZM98.1195 18.7201L97.7213 19.7241L98.6509 20.0928L99.0491 19.0888L98.1195 18.7201ZM97.6904 19.8429L97.4913 21.3489L98.4827 21.4799L98.6818 19.9739L97.6904 19.8429ZM97.5222 21.2301L97.124 22.234L98.0536 22.6027L98.4518 21.5987L97.5222 21.2301ZM97.1819 22.1279L96.5845 22.9645L97.3984 23.5456L97.9957 22.7089L97.1819 22.1279ZM96.5349 23.0513L95.9376 24.3899L96.8508 24.7974L97.4481 23.4588L96.5349 23.0513ZM95.9872 24.3032L95.3899 25.1398L96.2038 25.7209L96.8011 24.8842L95.9872 24.3032ZM95.3064 25.3331L94.9082 27.341L95.8891 27.5356L96.2873 25.5276L95.3064 25.3331ZM94.9123 27.5541L95.1114 28.3907L96.0842 28.1592L95.8851 27.3226L94.9123 27.5541ZM95.1013 28.2159L94.9022 29.8892L95.8952 30.0074L96.0943 28.334L95.1013 28.2159ZM94.91 29.8426L94.5118 31.6832L95.4892 31.8946L95.8874 30.054L94.91 29.8426ZM94.5059 31.7154L94.3068 33.054L95.2959 33.2011L95.495 31.8625L94.5059 31.7154ZM94.3717 32.8719L93.9735 33.5413L94.8329 34.0525L95.2311 33.3832L94.3717 32.8719ZM93.9962 33.5064L93.3989 34.343L94.2128 34.9241L94.8101 34.0874L93.9962 33.5064ZM93.9123 33.6711L92.912 35.136L93.7379 35.6999L94.7382 34.235L93.9123 33.6711ZM92.8426 35.2862L92.4425 36.751L93.4072 37.0145L93.8073 35.5497L92.8426 35.2862ZM92.4248 36.8828V38.5104H93.4248V36.8828H92.4248ZM92.4279 38.4549C92.3941 38.7579 92.3525 39.2036 92.3401 39.5463C92.3344 39.7052 92.3328 39.8867 92.3544 40.0201C92.3601 40.0557 92.3709 40.1104 92.3936 40.1688C92.408 40.2061 92.4668 40.3551 92.6312 40.4475C92.864 40.5782 93.0853 40.4902 93.1921 40.4124C93.2799 40.3485 93.33 40.2709 93.3508 40.2371L92.4989 39.7135C92.4997 39.7122 92.5318 39.6563 92.6033 39.6041C92.694 39.5381 92.901 39.452 93.1211 39.5757C93.2729 39.6609 93.3207 39.7939 93.3258 39.807C93.3333 39.8262 93.3371 39.8408 93.3389 39.8478C93.3407 39.8554 93.3415 39.8599 93.3415 39.8602C93.3415 39.8603 93.3404 39.8532 93.3393 39.8367C93.3382 39.8208 93.3373 39.8002 93.3368 39.7744C93.3359 39.7225 93.3368 39.6579 93.3395 39.5823C93.3505 39.2766 93.3889 38.8597 93.4218 38.5659L92.4279 38.4549ZM93.3508 40.2371C93.3503 40.2379 93.3317 40.2695 93.2921 40.3062C93.2625 40.3337 93.1367 40.4432 92.9359 40.428C92.7132 40.4112 92.5985 40.2604 92.5629 40.2019C92.5263 40.1418 92.5156 40.0919 92.5139 40.0846C92.5097 40.0655 92.5166 40.1043 92.5104 40.2414C92.4997 40.4752 92.4621 40.8077 92.4294 41.0469L93.4202 41.1823C93.4543 40.9332 93.4967 40.5658 93.5093 40.2869C93.5148 40.1676 93.5192 39.9969 93.4895 39.8649C93.4815 39.8294 93.463 39.7573 93.4171 39.6818C93.3721 39.608 93.2465 39.4486 93.0112 39.4308C92.7977 39.4147 92.6576 39.5308 92.6118 39.5733C92.556 39.6251 92.5194 39.6801 92.4989 39.7135L93.3508 40.2371ZM92.4497 40.9589C92.3165 41.3654 92.1458 41.8881 92.0684 42.1303C92.0499 42.1884 92.0344 42.2375 92.0267 42.2637C92.0262 42.2654 92.0202 42.2856 92.0155 42.3074C92.0146 42.3116 92.0098 42.3333 92.0068 42.3611C92.0059 42.37 92.0011 42.4122 92.0066 42.4658C92.011 42.4978 92.0332 42.5827 92.0547 42.6338C92.1068 42.7181 92.2951 42.8687 92.4332 42.9094C92.5543 42.9119 92.737 42.8568 92.7969 42.8197C92.8283 42.7951 92.8745 42.7503 92.8905 42.7317C92.9178 42.6984 92.9345 42.669 92.9391 42.661C92.9514 42.6394 92.9593 42.6214 92.9612 42.6172C92.973 42.5907 92.9847 42.5568 92.9875 42.549C93.0137 42.4747 93.0793 42.2811 93.1989 41.9246L92.2507 41.6067C92.1302 41.9663 92.0674 42.1511 92.0445 42.2162C92.0349 42.2433 92.0393 42.2293 92.0482 42.2093C92.0497 42.2059 92.0574 42.1885 92.0694 42.1673C92.0739 42.1595 92.0905 42.1302 92.1177 42.097C92.1337 42.0785 92.1799 42.0338 92.2112 42.0092C92.2711 41.972 92.4538 41.917 92.5749 41.9195C92.7129 41.9601 92.9012 42.1108 92.9533 42.195C92.9748 42.2461 92.997 42.3309 93.0013 42.3629C93.0069 42.4164 93.0021 42.4585 93.0012 42.4671C92.9983 42.4945 92.9936 42.5156 92.9928 42.519C92.9888 42.5375 92.9845 42.5513 92.9868 42.5437C92.9901 42.5323 93.0012 42.4965 93.021 42.4346C93.097 42.1966 93.2665 41.6776 93.4 41.2703L92.4497 40.9589ZM93.1989 41.9246C93.2588 41.7458 93.2999 41.625 93.3254 41.5518C93.3386 41.514 93.3459 41.4937 93.3491 41.4855C93.353 41.4752 93.3473 41.4914 93.3367 41.5129C93.334 41.5184 93.3242 41.5382 93.3086 41.5622C93.3015 41.5732 93.2842 41.5991 93.2573 41.6283C93.2469 41.6396 93.1627 41.7361 93.0124 41.7742C92.9327 41.7876 92.7584 41.7719 92.6696 41.7383C92.5959 41.694 92.4897 41.5893 92.455 41.5363C92.3979 41.4356 92.3924 41.3426 92.3913 41.3264C92.3872 41.2716 92.3938 41.2285 92.3943 41.224C92.3999 41.183 92.4106 41.1521 92.3984 41.1946C92.3929 41.2137 92.3844 41.2422 92.3729 41.28C92.3501 41.3551 92.3175 41.4604 92.2776 41.5878C92.1181 42.0973 91.8485 42.9423 91.6485 43.5661L92.6007 43.8715C92.8008 43.2475 93.0714 42.3997 93.232 41.8865C93.2721 41.7583 93.3057 41.6497 93.3298 41.5704C93.3418 41.531 93.3519 41.497 93.3595 41.4707C93.3603 41.4677 93.3785 41.4085 93.3853 41.3582C93.3861 41.3526 93.3926 41.3086 93.3886 41.2533C93.3874 41.2368 93.3819 41.1435 93.3247 41.0427C93.2899 40.9896 93.1837 40.885 93.11 40.8405C93.0212 40.807 92.8468 40.7913 92.767 40.8047C92.6166 40.8428 92.5323 40.9394 92.5217 40.9509C92.4947 40.9803 92.4772 41.0064 92.4698 41.0178C92.4538 41.0425 92.4434 41.0633 92.4401 41.0701C92.4268 41.0969 92.4169 41.1233 92.4149 41.1287C92.4061 41.1518 92.3945 41.1841 92.3811 41.2225C92.3535 41.3017 92.3108 41.4274 92.2507 41.6067L93.1989 41.9246ZM91.6321 43.6323L91.4321 44.7717L92.417 44.9446L92.6171 43.8053L91.6321 43.6323ZM91.4528 44.6925L91.0527 45.8318L91.9962 46.1631L92.3963 45.0238L91.4528 44.6925ZM91.0244 45.9975V46.974H92.0244V45.9975H91.0244ZM91.0568 46.7972L90.2565 48.9131L91.1919 49.2668L91.9921 47.1509L91.0568 46.7972ZM90.315 48.8026L89.5148 49.9419L90.3331 50.5167L91.1334 49.3773L90.315 48.8026ZM89.4298 50.1533L89.0297 52.7575L90.0181 52.9094L90.4182 50.3052L89.4298 50.1533ZM89.0415 52.7017L88.6414 54.1666L89.6061 54.4301L90.0062 52.9652L89.0415 52.7017ZM88.6458 54.1515L88.0456 56.1046L89.0015 56.3983L89.6017 54.4452L88.6458 54.1515ZM88.0323 56.1586L87.6322 58.2745L88.6147 58.4603L89.0149 56.3444L88.0323 56.1586ZM87.6694 58.1581L87.0692 59.4602L87.9774 59.8788L88.5775 58.5767L87.6694 58.1581ZM87.0233 59.6695V60.9716H88.0233V59.6695H87.0233ZM87.1209 60.6748L85.9205 62.3024L86.7253 62.896L87.9257 61.2683L87.1209 60.6748ZM85.8229 62.5992V63.9013H86.8229V62.5992H85.8229ZM85.9205 63.6045L84.7202 65.2321L85.525 65.8257L86.7253 64.1981L85.9205 63.6045ZM84.6861 65.285L83.6858 67.0754L84.5588 67.5632L85.5591 65.7728L84.6861 65.285ZM83.7199 67.0225L81.9194 69.464L82.7242 70.0575L84.5247 67.6161L83.7199 67.0225ZM81.996 69.3814L78.395 72.4739L79.0465 73.2325L82.6475 70.1401L81.996 69.3814ZM78.4824 72.4137L76.0817 73.7158L76.5584 74.5948L78.9591 73.2927L78.4824 72.4137ZM76.2085 73.6679L69.8067 75.1328L70.0297 76.1076L76.4316 74.6427L76.2085 73.6679ZM69.6845 75.1782L65.6833 77.2941L66.1508 78.1781L70.1519 76.0622L69.6845 75.1782ZM65.8688 77.2384L57.4664 78.0522L57.5628 79.0476L65.9652 78.2337L65.8688 77.2384ZM57.4232 78.0583L50.4212 79.3604L50.604 80.3436L57.606 79.0415L57.4232 78.0583ZM50.6298 79.3659L45.2282 78.0638L44.9939 79.036L50.3954 80.3381L50.6298 79.3659ZM45.2386 78.0664L37.8365 76.1133L37.5813 77.0802L44.9835 79.0333L45.2386 78.0664ZM37.9282 76.1474L32.9268 73.706L32.4881 74.6046L37.4896 77.0461L37.9282 76.1474ZM33.0415 73.7832L27.2398 68.5749L26.5718 69.319L32.3734 74.5274L33.0415 73.7832ZM27.2213 68.5591L23.8203 65.7921L23.1892 66.5678L26.5902 69.3348L27.2213 68.5591ZM23.7432 65.7404L21.9427 64.7639L21.4659 65.6429L23.2664 66.6195L23.7432 65.7404ZM22.1794 65.0477L21.3792 62.6062L20.4289 62.9177L21.2291 65.3591L22.1794 65.0477ZM21.3405 62.5181L20.3403 60.7277L19.4673 61.2154L20.4676 63.0058L21.3405 62.5181ZM20.2575 60.6183L17.6568 58.0141L16.9492 58.7207L19.55 61.3249L20.2575 60.6183ZM17.791 58.2583L17.3909 56.4679L16.4149 56.6861L16.815 58.4764L17.791 58.2583ZM17.3289 51.7579L16.9288 51.1068L16.0768 51.6304L16.4769 52.2815L17.3289 51.7579ZM16.9654 51.5582L17.1655 51.0699L16.2402 50.6908L16.0401 51.179L16.9654 51.5582ZM17.1982 50.8127L16.9982 49.3478L16.0074 49.4831L16.2074 50.948L17.1982 50.8127ZM16.997 49.3395L16.7969 48.0374L15.8085 48.1893L16.0086 49.4914L16.997 49.3395ZM16.7051 48.4101L17.3053 47.5963L16.5005 47.0028L15.9003 47.8166L16.7051 48.4101ZM17.3963 47.2187L16.9962 44.7773L16.0094 44.939L16.4095 47.3804L17.3963 47.2187ZM16.9807 44.7113C16.9549 44.6273 16.9246 44.4946 16.9164 44.3823C16.9145 44.3561 16.9141 44.3344 16.9146 44.3174C16.9149 44.3091 16.9153 44.3027 16.9158 44.298C16.9163 44.2933 16.9167 44.2912 16.9167 44.2912C16.9167 44.2913 16.9161 44.2946 16.9142 44.3005C16.9123 44.3064 16.9088 44.3162 16.9026 44.3287C16.8904 44.3536 16.8651 44.3941 16.8183 44.4322L16.1872 43.6565C16.0163 43.7955 15.9578 43.9836 15.9351 44.1005C15.9107 44.226 15.9116 44.3519 15.9191 44.455C15.9342 44.6629 15.984 44.872 16.0248 45.005L16.9807 44.7113ZM16.8183 44.4322C16.9251 44.3453 17.0014 44.2335 17.0506 44.1526C17.105 44.0632 17.1533 43.9655 17.1942 43.8744C17.2759 43.6919 17.3428 43.5012 17.3808 43.3774L16.4249 43.0836C16.3963 43.1768 16.3432 43.3279 16.2815 43.4656C16.2507 43.5344 16.2215 43.5914 16.1962 43.6329C16.1659 43.6829 16.1605 43.6782 16.1872 43.6565L16.8183 44.4322ZM17.3656 43.0409L16.5653 41.0878L15.64 41.4669L16.4402 43.4201L17.3656 43.0409ZM16.5605 41.0764L15.5602 38.7977L14.6445 39.1997L15.6448 41.4783L16.5605 41.0764ZM15.5879 39.1181L15.988 37.4904L15.0169 37.2517L14.6168 38.8793L15.5879 39.1181ZM15.9512 37.1505L15.151 35.5228L14.2536 35.9641L15.0538 37.5917L15.9512 37.1505ZM15.2023 35.7434V35.4179H14.2023V35.7434H15.2023ZM65.0068 61.3492C65.1119 61.6103 65.3264 61.7494 65.5179 61.8173C65.702 61.8825 65.9035 61.8981 66.0855 61.8954C66.4529 61.89 66.8867 61.8063 67.2873 61.7068C67.6952 61.6055 68.1011 61.4795 68.4221 61.3746C68.7659 61.2623 68.9698 61.1893 69.0406 61.1699L68.7764 60.2054C68.6765 60.2328 68.4005 60.3296 68.1116 60.424C67.7998 60.5259 67.4201 60.6434 67.0463 60.7362C66.6653 60.8309 66.3211 60.8918 66.0709 60.8955C65.9441 60.8974 65.8769 60.8835 65.8519 60.8747C65.8343 60.8685 65.8994 60.8887 65.9344 60.9756L65.0068 61.3492ZM69.0406 61.1699C74.2208 59.7512 79.5395 58.9627 84.9237 58.3729L84.8148 57.3788C79.4093 57.971 74.0308 58.7664 68.7764 60.2054L69.0406 61.1699ZM84.9237 58.3729C89.8524 57.8329 94.7856 57.6673 99.7684 57.3033L99.6956 56.306C94.7687 56.6658 89.7635 56.8367 84.8148 57.3788L84.9237 58.3729ZM99.7684 57.3033C100.196 57.2721 100.69 57.3423 101.264 56.986L100.736 56.1364C100.437 56.322 100.349 56.2583 99.6956 56.306L99.7684 57.3033ZM46.2442 60.5456C42.6022 57.7708 38.3576 55.9782 33.961 54.588C29.5799 53.2027 24.9767 52.1977 20.6859 51.0391L20.4252 52.0045C24.7867 53.1822 29.2993 54.1627 33.6595 55.5415C38.0041 56.9153 42.1261 58.6653 45.6381 61.341L46.2442 60.5456ZM20.6859 51.0391C16.0204 49.7793 11.2824 48.1984 6.52513 47.091L6.29839 48.0649C11.0493 49.1709 15.6669 50.7197 20.4252 52.0045L20.6859 51.0391ZM44.8324 63.7345C34.7229 62.3526 24.3596 62.8535 14.2418 62.8535V63.8535C24.4265 63.8535 34.6765 63.3556 44.697 64.7253L44.8324 63.7345ZM14.2418 62.8535C10.7686 62.8535 7.03879 62.5882 3.49376 63.0773L3.63042 64.0679C7.08487 63.5913 10.6687 63.8535 14.2418 63.8535V62.8535ZM3.49376 63.0773C2.6266 63.1969 1.84116 63.2917 1 63.2917V64.2917C1.91456 64.2917 2.75786 64.1883 3.63042 64.0679L3.49376 63.0773ZM44.6425 68.3462C36.8274 70.3154 28.8744 71.3599 20.8655 72.6956L21.03 73.682C28.9934 72.3538 37.0191 71.2983 44.8869 69.3159L44.6425 68.3462ZM20.8655 72.6956C17.4879 73.2589 14.1407 73.6699 10.8713 74.8359L11.2072 75.7778C14.369 74.6502 17.5933 74.2552 21.03 73.682L20.8655 72.6956ZM10.8713 74.8359C10.3702 75.0146 9.80953 75.1471 9.21787 75.2746C8.63714 75.3998 8.0169 75.522 7.44504 75.6761L7.7053 76.6416C8.24457 76.4963 8.82216 76.3829 9.42859 76.2522C10.0241 76.1238 10.6399 75.9801 11.2072 75.7778L10.8713 74.8359ZM7.44504 75.6761C5.74364 76.1347 4.0951 76.5352 2.37605 76.6583L2.4475 77.6557C4.26907 77.5253 5.99658 77.1022 7.7053 76.6416L7.44504 75.6761ZM65.0812 66.0202C69.0707 67.3123 72.8423 69.1134 76.6439 70.9389C80.4358 72.7598 84.2586 74.6056 88.3063 75.9517L88.6218 75.0028C84.645 73.6802 80.8799 71.8637 77.0768 70.0375C73.2834 68.2159 69.4529 66.385 65.3894 65.0688L65.0812 66.0202ZM88.3063 75.9517C89.3457 76.2974 90.2892 76.5413 91.1695 76.9251C92.0258 77.2984 92.7518 77.7788 93.2993 78.5436L94.1124 77.9615C93.4255 77.002 92.5269 76.426 91.5691 76.0084C90.6353 75.6013 89.5751 75.3198 88.6218 75.0028L88.3063 75.9517ZM62.2041 69.9395C64.3888 74.1098 67.5159 77.3167 70.5857 80.7986L71.3358 80.1373C68.2195 76.6026 65.2035 73.51 63.09 69.4755L62.2041 69.9395ZM70.5857 80.7986C71.2393 81.5399 71.8219 82.3272 72.4045 83.1367C72.9831 83.9409 73.5661 84.7735 74.2034 85.5751L74.9861 84.9527C74.3682 84.1755 73.8052 83.3713 73.2162 82.5527C72.631 81.7394 72.0242 80.9181 71.3358 80.1373L70.5857 80.7986ZM74.2034 85.5751C74.4289 85.8587 74.6978 86.1436 74.9191 86.3932C75.1516 86.6553 75.3505 86.8981 75.4967 87.1477L76.3595 86.6423C76.1615 86.3043 75.9082 86.0013 75.6673 85.7297C75.4153 85.4455 75.1896 85.2086 74.9861 84.9527L74.2034 85.5751ZM75.4967 87.1477C77.2996 90.2256 79.6805 92.8318 82.9498 94.6823L83.4424 93.812C80.3527 92.0632 78.0899 89.5964 76.3595 86.6423L75.4967 87.1477ZM82.9498 94.6823C83.3188 94.8912 83.5922 95.1617 83.8944 95.4764C84.1859 95.7798 84.5217 96.1455 84.9716 96.4248L85.499 95.5752C85.1774 95.3755 84.9318 95.1129 84.6157 94.7837C84.3103 94.4657 83.9499 94.0993 83.4424 93.812L82.9498 94.6823ZM15.0638 36.3069V32.4582H14.0638V36.3069H15.0638ZM13.471 28.777V21.4144H12.471V28.777H13.471ZM12.6746 18.7371V12.5458H11.6746V18.7371H12.6746ZM13.471 11.3745V6.01993H12.471V11.3745H13.471ZM38.2622 18.0267L42.6424 19.8674L43.0298 18.9455L38.6496 17.1048L38.2622 18.0267ZM45.0262 19.2371H49.2073V18.2371H45.0262V19.2371ZM50.4019 18.7351H53.9857V17.7351H50.4019V18.7351ZM98.2834 12.8805V15.2231H99.2834V12.8805H98.2834ZM17.4029 56.577V52.0197H16.4029V56.577H17.4029Z" fill="#FFEDDE"/>
</svg>
